<svg xmlns="http://www.w3.org/2000/svg" viewBox="0 0 1200 760">
  <defs>
    <linearGradient id="bg" x1="0" y1="0" x2="1" y2="1"><stop stop-color="#172a40"/><stop offset="1" stop-color="#061321"/></linearGradient>
    <radialGradient id="g"><stop stop-color="#2a76d6" stop-opacity=".36"/><stop offset="1" stop-color="#2a76d6" stop-opacity="0"/></radialGradient>
    <filter id="s"><feDropShadow dx="0" dy="24" stdDeviation="18" flood-color="#000" flood-opacity=".48"/></filter>
  </defs>
  <rect width="1200" height="760" rx="54" fill="url(#bg)"/>
  <circle cx="720" cy="330" r="360" fill="url(#g)"/>
  <ellipse cx="700" cy="650" rx="390" ry="42" fill="#000" opacity=".33"/>
  <g filter="url(#s)" stroke-linecap="round" stroke-linejoin="round">
    <path d="M275 568h680" stroke="#111821" stroke-width="38"/>
    <path d="M328 568 280 640M900 568l70 72" stroke="#303a49" stroke-width="22"/>
    <circle cx="280" cy="646" r="22" fill="#111821" stroke="#394555" stroke-width="10"/>
    <circle cx="972" cy="646" r="22" fill="#111821" stroke="#394555" stroke-width="10"/>
    <path d="M815 263h130v185H815z" fill="#0a111b" stroke="#394555" stroke-width="16"/>
    <circle cx="516" cy="170" r="43" fill="#c98f69"/>
    <path d="M481 210c-65 47-93 125-63 199l106 68 83-51-97-77 37-113c-15-22-38-31-66-26Z" fill="#111720"/>
    <path d="m493 276 117 82 141-5" stroke="#c98f69" stroke-width="31"/>
    <path d="m529 471-84 79M594 442l103 102" stroke="#111720" stroke-width="42"/>
    <path d="M438 550h-84M693 544h94" stroke="#eef2f6" stroke-width="20"/>
    <path d="M310 604h650" stroke="#ffcf18" stroke-width="7" opacity=".72"/>
  </g>
</svg>
